<svg xmlns="http://www.w3.org/2000/svg" xmlns:xlink="http://www.w3.org/1999/xlink" width="2000" zoomAndPan="magnify" viewBox="0 0 1500 1499.999933" height="2000" preserveAspectRatio="xMidYMid meet" version="1.0"><defs><g/><clipPath id="388726b52c"><path d="M 0.976562 0.585938 L 1369.023438 0.585938 L 1369.023438 1042 L 0.976562 1042 Z M 0.976562 0.585938 " clip-rule="nonzero"/></clipPath><clipPath id="848070dd3d"><path d="M 685 0.585938 C 307.222656 0.585938 0.976562 306.835938 0.976562 684.613281 C 0.976562 1062.390625 307.222656 1368.636719 685 1368.636719 C 1062.777344 1368.636719 1369.023438 1062.390625 1369.023438 684.613281 C 1369.023438 306.835938 1062.777344 0.585938 685 0.585938 Z M 685 0.585938 " clip-rule="nonzero"/></clipPath><clipPath id="350ea222f1"><path d="M 0.976562 0.585938 L 1369.023438 0.585938 L 1369.023438 1042 L 0.976562 1042 Z M 0.976562 0.585938 " clip-rule="nonzero"/></clipPath><clipPath id="4685ff739a"><path d="M 685 0.585938 C 307.222656 0.585938 0.976562 306.835938 0.976562 684.613281 C 0.976562 1062.390625 307.222656 1368.636719 685 1368.636719 C 1062.777344 1368.636719 1369.023438 1062.390625 1369.023438 684.613281 C 1369.023438 306.835938 1062.777344 0.585938 685 0.585938 Z M 685 0.585938 " clip-rule="nonzero"/></clipPath><clipPath id="f5d912b844"><rect x="0" width="1370" y="0" height="1042"/></clipPath><clipPath id="7efc434f49"><path d="M 138 139.148438 L 1232 139.148438 L 1232 690.929688 L 138 690.929688 Z M 138 139.148438 " clip-rule="nonzero"/></clipPath><clipPath id="2f18e334d0"><path d="M 557.109375 732.96875 L 1232.710938 732.96875 L 1232.710938 891.640625 L 557.109375 891.640625 Z M 557.109375 732.96875 " clip-rule="nonzero"/></clipPath><clipPath id="26498e95f2"><path d="M 562.359375 732.96875 L 1227.460938 732.96875 C 1230.359375 732.96875 1232.710938 735.320312 1232.710938 738.21875 L 1232.710938 886.390625 C 1232.710938 889.292969 1230.359375 891.640625 1227.460938 891.640625 L 562.359375 891.640625 C 559.460938 891.640625 557.109375 889.292969 557.109375 886.390625 L 557.109375 738.21875 C 557.109375 735.320312 559.460938 732.96875 562.359375 732.96875 Z M 562.359375 732.96875 " clip-rule="nonzero"/></clipPath><clipPath id="fbd65c42a1"><path d="M 0.109375 0.96875 L 675.710938 0.96875 L 675.710938 159.640625 L 0.109375 159.640625 Z M 0.109375 0.96875 " clip-rule="nonzero"/></clipPath><clipPath id="9dec829a47"><path d="M 5.359375 0.96875 L 670.460938 0.96875 C 673.359375 0.96875 675.710938 3.320312 675.710938 6.21875 L 675.710938 154.390625 C 675.710938 157.292969 673.359375 159.640625 670.460938 159.640625 L 5.359375 159.640625 C 2.460938 159.640625 0.109375 157.292969 0.109375 154.390625 L 0.109375 6.21875 C 0.109375 3.320312 2.460938 0.96875 5.359375 0.96875 Z M 5.359375 0.96875 " clip-rule="nonzero"/></clipPath><clipPath id="50f03e5a3b"><rect x="0" width="676" y="0" height="160"/></clipPath><clipPath id="1dc3a04e50"><rect x="0" width="576" y="0" height="182"/></clipPath><clipPath id="615188f0d6"><rect x="0" width="363" y="0" height="224"/></clipPath><clipPath id="61168e4178"><rect x="0" width="579" y="0" height="148"/></clipPath><clipPath id="7010ed3ab9"><rect x="0" width="1370" y="0" height="1042"/></clipPath></defs><g transform="matrix(1, 0, 0, 1, 65, 458)"><g clip-path="url(#7010ed3ab9)"><g clip-path="url(#388726b52c)"><g clip-path="url(#848070dd3d)"><g transform="matrix(1, 0, 0, 1, 0.000000000000014211, 0.000000000000113687)"><g clip-path="url(#f5d912b844)"><g clip-path="url(#350ea222f1)"><g clip-path="url(#4685ff739a)"><path fill="#ffd736" d="M 0.976562 0.585938 L 1369.023438 0.585938 L 1369.023438 1368.636719 L 0.976562 1368.636719 Z M 0.976562 0.585938 " fill-opacity="1" fill-rule="nonzero"/></g></g></g></g></g></g><g clip-path="url(#7efc434f49)"><path fill="#231f20" d="M 1197.632812 630.886719 C 1197.867188 634.035156 1195.652344 636.71875 1192.503906 636.949219 C 1189.355469 637.183594 1186.675781 634.96875 1186.441406 631.820312 C 1174.316406 514.191406 1121.507812 408.683594 1042.8125 329.175781 C 963.773438 249.550781 858.730469 196.039062 741.335938 182.632812 C 738.1875 182.398438 735.972656 179.484375 736.4375 176.335938 C 736.671875 173.191406 739.585938 170.972656 742.734375 171.441406 C 862.578125 185.3125 970.300781 239.992188 1050.742188 321.363281 C 1131.53125 402.855469 1185.160156 510.808594 1197.632812 630.886719 M 552.472656 510.109375 L 552.472656 541.703125 L 814.78125 541.703125 L 814.78125 510.109375 C 814.78125 495.304688 820.84375 481.898438 830.285156 472.453125 C 838.796875 463.945312 849.988281 458.347656 862.34375 457.183594 L 862.34375 422.207031 C 862.34375 405.1875 855.351562 389.679688 844.160156 378.488281 C 832.96875 367.296875 817.460938 360.304688 800.441406 360.304688 L 566.34375 360.304688 C 549.324219 360.304688 533.820312 367.296875 522.628906 378.488281 C 511.433594 389.679688 504.441406 405.1875 504.441406 422.207031 L 504.441406 457.183594 C 516.796875 458.347656 528.222656 464.175781 536.5 472.453125 C 546.644531 481.898438 552.472656 495.304688 552.472656 510.109375 Z M 148.285156 679.503906 L 273.257812 679.503906 L 281.535156 648.375 L 256.238281 648.375 C 253.089844 648.375 250.644531 645.925781 250.644531 642.78125 L 250.644531 499.382812 C 250.644531 496.238281 253.089844 493.789062 256.238281 493.789062 L 448.480469 493.789062 C 451.164062 485.511719 455.824219 478.285156 461.65625 472.453125 C 470.164062 463.945312 481.355469 458.347656 493.714844 457.183594 L 493.714844 422.207031 C 493.714844 402.039062 501.992188 383.851562 515.398438 370.445312 C 528.804688 357.039062 546.992188 348.761719 567.160156 348.761719 L 801.257812 348.761719 C 821.425781 348.761719 839.613281 357.039062 853.019531 370.445312 C 866.425781 383.851562 874.703125 402.039062 874.703125 422.207031 L 874.703125 457.183594 C 887.0625 458.347656 898.484375 464.175781 906.761719 472.453125 C 912.59375 478.285156 917.253906 485.859375 919.9375 493.789062 L 1112.644531 493.789062 C 1115.792969 493.789062 1118.242188 496.238281 1118.242188 499.382812 L 1118.242188 642.78125 C 1118.242188 645.925781 1115.792969 648.375 1112.644531 648.375 L 1087 648.375 L 1095.277344 679.503906 L 1219.433594 679.503906 C 1217.917969 533.894531 1158.230469 402.15625 1062.632812 306.324219 C 966.917969 210.613281 835.183594 151.039062 689.570312 149.640625 L 689.570312 217.023438 C 701.695312 218.191406 712.65625 223.320312 721.398438 231.363281 C 731.308594 240.339844 737.953125 253.28125 739.117188 267.386719 C 739.351562 270.535156 737.136719 273.214844 733.988281 273.449219 C 733.757812 273.449219 733.757812 273.449219 733.523438 273.449219 L 634.3125 273.449219 C 631.164062 273.449219 628.714844 271 628.714844 267.855469 C 628.714844 267.621094 628.714844 267.386719 628.714844 267.152344 C 629.882812 253.046875 636.527344 240.457031 646.4375 231.363281 C 654.945312 223.554688 666.140625 218.191406 678.261719 217.023438 L 678.261719 149.640625 C 532.652344 151.15625 400.917969 210.84375 305.085938 306.441406 C 209.257812 402.15625 149.683594 533.894531 148.285156 679.503906 Z M 304.96875 679.503906 L 402.898438 679.503906 L 384.945312 648.375 L 322.921875 648.375 Z M 434.839844 679.503906 L 498.027344 679.503906 L 506.304688 648.375 L 426.5625 648.375 Z M 529.855469 679.503906 L 837.628906 679.503906 L 819.675781 648.375 L 547.808594 648.375 Z M 869.457031 679.503906 L 933.34375 679.503906 L 941.621094 648.375 L 861.179688 648.375 Z M 965.171875 679.503906 L 1063.097656 679.503906 L 1045.144531 648.375 L 982.890625 648.375 Z M 1225.03125 690.695312 L 138.023438 690.695312 L 138.023438 686.148438 C 138.023438 535.175781 199.230469 398.308594 298.207031 299.449219 C 397.183594 200.351562 534.050781 139.148438 684.910156 139.148438 C 835.882812 139.148438 972.75 200.351562 1071.726562 299.332031 C 1170.703125 398.308594 1231.910156 535.058594 1231.910156 686.03125 C 1231.910156 688.246094 1230.742188 689.878906 1228.996094 690.929688 L 1225.496094 690.929688 Z M 704.84375 281.609375 C 702.394531 290.820312 693.886719 297.933594 683.742188 297.933594 C 673.484375 297.933594 664.972656 291.171875 662.640625 281.609375 Z M 713.585938 239.523438 C 705.777344 232.179688 695.402344 227.867188 683.742188 227.867188 C 672.085938 227.867188 661.824219 232.296875 653.898438 239.523438 C 647.371094 245.355469 642.707031 253.164062 640.722656 262.140625 L 726.761719 262.140625 C 724.78125 253.164062 720 245.355469 713.585938 239.523438 Z M 359.761719 504.980469 L 359.761719 589.386719 L 445.800781 589.386719 L 445.800781 510.109375 C 445.800781 508.363281 445.800781 506.730469 446.03125 504.980469 Z M 348.335938 589.269531 L 348.335938 504.863281 L 261.835938 504.863281 L 261.835938 589.269531 Z M 1058.320312 648.375 L 1076.273438 679.503906 L 1083.617188 679.503906 L 1075.339844 648.375 Z M 953.277344 648.375 L 945 679.503906 L 952.347656 679.503906 L 970.300781 648.375 Z M 992.449219 539.253906 C 996.878906 539.253906 1000.496094 542.871094 1000.496094 547.300781 C 1000.496094 551.730469 996.878906 555.34375 992.449219 555.34375 C 988.019531 555.34375 984.40625 551.730469 984.40625 547.300781 C 984.40625 542.636719 987.789062 539.253906 992.449219 539.253906 Z M 1035.933594 539.253906 C 1040.367188 539.253906 1043.980469 542.871094 1043.980469 547.300781 C 1043.980469 551.730469 1040.367188 555.34375 1035.933594 555.34375 C 1031.503906 555.34375 1027.890625 551.730469 1027.890625 547.300781 C 1027.890625 542.636719 1031.621094 539.253906 1035.933594 539.253906 Z M 1014.132812 610.953125 C 1018.566406 610.953125 1022.179688 614.566406 1022.179688 618.996094 C 1022.179688 623.425781 1018.566406 627.042969 1014.132812 627.042969 C 1009.703125 627.042969 1006.089844 623.425781 1006.089844 618.996094 C 1006.089844 614.335938 1009.703125 610.953125 1014.132812 610.953125 Z M 1106.46875 589.269531 L 1106.46875 504.863281 L 1019.730469 504.863281 L 1019.730469 589.269531 Z M 1008.539062 504.980469 L 921.800781 504.980469 L 921.800781 589.386719 L 1008.539062 589.386719 Z M 921.917969 637.183594 L 1106.46875 637.183594 L 1106.46875 600.8125 L 921.800781 600.8125 L 921.800781 637.300781 L 921.917969 637.300781 Z M 398.117188 648.375 L 416.070312 679.503906 L 423.417969 679.503906 L 415.140625 648.375 Z M 293.078125 648.375 L 284.800781 679.503906 L 292.144531 679.503906 L 310.097656 648.375 Z M 332.25 539.253906 C 336.679688 539.253906 340.292969 542.871094 340.292969 547.300781 C 340.292969 551.730469 336.679688 555.34375 332.25 555.34375 C 327.820312 555.34375 324.207031 551.730469 324.207031 547.300781 C 324.207031 542.636719 327.820312 539.253906 332.25 539.253906 Z M 375.734375 539.253906 C 380.164062 539.253906 383.777344 542.871094 383.777344 547.300781 C 383.777344 551.730469 380.164062 555.34375 375.734375 555.34375 C 371.304688 555.34375 367.691406 551.730469 367.691406 547.300781 C 367.691406 542.636719 371.421875 539.253906 375.734375 539.253906 Z M 354.167969 610.953125 C 358.597656 610.953125 362.210938 614.566406 362.210938 618.996094 C 362.210938 623.425781 358.597656 627.042969 354.167969 627.042969 C 349.738281 627.042969 346.121094 623.425781 346.121094 618.996094 C 345.890625 614.335938 349.503906 610.953125 354.167969 610.953125 Z M 457.691406 503 L 457.691406 636.949219 L 910.84375 636.949219 L 910.84375 509.992188 C 910.84375 498.335938 906.179688 487.84375 898.484375 480.148438 C 890.90625 472.570312 880.300781 467.792969 868.640625 467.792969 C 856.984375 467.792969 846.492188 472.453125 838.796875 480.148438 C 831.21875 487.726562 826.4375 498.335938 826.4375 509.992188 L 826.4375 547.183594 C 826.4375 550.332031 823.992188 552.777344 820.84375 552.777344 L 546.875 552.777344 C 543.726562 552.777344 541.28125 550.332031 541.28125 547.183594 L 541.28125 509.992188 C 541.28125 498.335938 536.617188 487.84375 528.921875 480.148438 C 521.34375 472.570312 510.734375 467.792969 499.078125 467.792969 C 487.417969 467.792969 476.925781 472.453125 469.234375 480.148438 C 463.289062 486.210938 459.089844 494.253906 457.691406 503 Z M 261.71875 637.183594 L 445.800781 637.183594 L 445.800781 600.8125 L 261.835938 600.8125 L 261.835938 637.183594 Z M 832.734375 648.375 L 850.6875 679.503906 L 858.03125 679.503906 L 849.753906 648.375 Z M 517.964844 648.375 L 509.6875 679.503906 L 517.03125 679.503906 L 534.984375 648.375 Z M 181.042969 632.054688 C 180.808594 635.203125 177.894531 637.417969 174.980469 637.183594 C 171.832031 636.949219 169.617188 634.035156 169.851562 631.121094 C 182.441406 510.808594 236.1875 402.855469 316.628906 321.714844 C 397.417969 240.222656 504.789062 185.546875 624.871094 171.90625 C 628.015625 171.675781 630.699219 173.890625 631.164062 176.804688 C 631.398438 179.953125 629.183594 182.632812 626.269531 183.097656 C 508.988281 196.507812 403.949219 250.015625 324.90625 329.757812 C 245.980469 408.917969 193.167969 514.421875 181.042969 632.054688 " fill-opacity="1" fill-rule="evenodd"/></g><g clip-path="url(#2f18e334d0)"><g clip-path="url(#26498e95f2)"><g transform="matrix(1, 0, 0, 1, 557, 732)"><g clip-path="url(#50f03e5a3b)"><g clip-path="url(#fbd65c42a1)"><g clip-path="url(#9dec829a47)"><path fill="#000000" d="M 0.109375 0.96875 L 675.710938 0.96875 L 675.710938 159.640625 L 0.109375 159.640625 Z M 0.109375 0.96875 " fill-opacity="1" fill-rule="nonzero"/></g></g></g></g></g></g><g transform="matrix(1, 0, 0, 1, 614, 722)"><g clip-path="url(#1dc3a04e50)"><g fill="#ffffff" fill-opacity="1"><g transform="translate(3.769211, 137.677345)"><g><path d="M -1.84375 0 L -1.578125 -1.3125 L 1.453125 -2.109375 C 5.492188 -3.253906 7.863281 -5.800781 8.5625 -9.75 L 20.953125 -76.0625 L 20.5625 -77.5 C 20.476562 -80.664062 19.070312 -83.171875 16.34375 -85.015625 L 15.421875 -85.671875 L 15.6875 -87 L 38.09375 -87 L 54.96875 -21.875 L 93.84375 -87 L 117.046875 -87 L 116.78125 -85.671875 L 114.15625 -84.484375 C 110.988281 -83.171875 109.097656 -80.710938 108.484375 -77.109375 L 102.015625 -41 C 101.054688 -35.71875 100.09375 -30.394531 99.125 -25.03125 C 98.15625 -19.675781 97.234375 -14.320312 96.359375 -8.96875 C 95.742188 -5.269531 97.28125 -2.851562 100.96875 -1.71875 L 102.015625 -1.3125 L 101.765625 0 L 70.25 0 L 70.515625 -1.3125 L 71.84375 -1.71875 C 75.53125 -2.851562 77.679688 -5.3125 78.296875 -9.09375 L 89.890625 -72.234375 L 46.796875 0 L 41.921875 0 L 23.46875 -71.96875 L 12.125 -10.015625 C 11.332031 -5.972656 12.914062 -3.296875 16.875 -1.984375 L 19.25 -1.3125 L 18.984375 0 Z M -1.84375 0 "/></g></g></g><g fill="#ffffff" fill-opacity="1"><g transform="translate(120.953637, 137.677345)"><g><path d="M 39.40625 2.234375 C 33.082031 2.234375 27.457031 0.875 22.53125 -1.84375 C 17.613281 -4.570312 13.75 -8.613281 10.9375 -13.96875 C 8.125 -19.332031 6.71875 -26.007812 6.71875 -34 C 6.71875 -41.300781 7.859375 -48.242188 10.140625 -54.828125 C 12.429688 -61.421875 15.707031 -67.3125 19.96875 -72.5 C 24.226562 -77.6875 29.367188 -81.769531 35.390625 -84.75 C 41.410156 -87.738281 48.113281 -89.234375 55.5 -89.234375 C 62.082031 -89.234375 67.832031 -87.757812 72.75 -84.8125 C 77.675781 -81.875 81.5 -77.703125 84.21875 -72.296875 C 86.945312 -66.890625 88.3125 -60.5 88.3125 -53.125 C 88.3125 -45.738281 87.164062 -38.707031 84.875 -32.03125 C 82.59375 -25.351562 79.320312 -19.441406 75.0625 -14.296875 C 70.800781 -9.160156 65.660156 -5.117188 59.640625 -2.171875 C 53.617188 0.765625 46.875 2.234375 39.40625 2.234375 Z M 40.734375 -0.390625 C 44.679688 -0.390625 48.410156 -1.863281 51.921875 -4.8125 C 55.441406 -7.757812 58.539062 -11.800781 61.21875 -16.9375 C 63.90625 -22.082031 66.015625 -28.054688 67.546875 -34.859375 C 69.085938 -41.671875 69.859375 -48.898438 69.859375 -56.546875 C 69.859375 -66.210938 68.710938 -73.632812 66.421875 -78.8125 C 64.140625 -84 60.273438 -86.59375 54.828125 -86.59375 C 50.785156 -86.59375 46.960938 -85.144531 43.359375 -82.25 C 39.765625 -79.351562 36.601562 -75.351562 33.875 -70.25 C 31.15625 -65.15625 29.003906 -59.242188 27.421875 -52.515625 C 25.835938 -45.796875 25.046875 -38.613281 25.046875 -30.96875 C 25.046875 -21.132812 26.296875 -13.578125 28.796875 -8.296875 C 31.304688 -3.023438 35.285156 -0.390625 40.734375 -0.390625 Z M 40.734375 -0.390625 "/></g></g></g><g fill="#ffffff" fill-opacity="1"><g transform="translate(213.883905, 137.677345)"><g><path d="M 29.65625 0.53125 L 16.609375 -77.765625 C 16.078125 -81.015625 14.273438 -83.566406 11.203125 -85.421875 L 10.671875 -85.671875 L 10.9375 -87 L 41.921875 -87 L 41.78125 -85.671875 L 40.078125 -85.015625 C 36.734375 -83.523438 35.328125 -81.109375 35.859375 -77.765625 L 44.421875 -18.453125 L 74.34375 -78.171875 C 76.007812 -81.679688 75.039062 -84.050781 71.4375 -85.28125 L 70.125 -85.671875 L 70.390625 -87 L 88.3125 -87 L 88.046875 -85.671875 L 86.59375 -85.28125 C 82.644531 -83.875 79.703125 -81.28125 77.765625 -77.5 L 38.09375 0.53125 Z M 29.65625 0.53125 "/></g></g></g><g fill="#ffffff" fill-opacity="1"><g transform="translate(300.618832, 137.677345)"><g><path d="M 0.265625 0 L 0.53125 -1.3125 L 3.03125 -2.109375 C 6.195312 -3.335938 8.039062 -5.535156 8.5625 -8.703125 L 15.6875 -46.140625 C 16.5625 -50.796875 17.484375 -55.957031 18.453125 -61.625 C 19.421875 -67.289062 20.34375 -72.671875 21.21875 -77.765625 C 21.832031 -81.285156 20.472656 -83.703125 17.140625 -85.015625 L 15.8125 -85.671875 L 16.078125 -87 L 75.53125 -87 L 72.234375 -64.0625 L 70.921875 -64.0625 L 68.28125 -76.1875 C 67.664062 -79 66.566406 -81.0625 64.984375 -82.375 C 63.398438 -83.695312 61.070312 -84.359375 58 -84.359375 L 40.734375 -84.359375 L 33.484375 -46.140625 L 45.609375 -46.140625 C 49.554688 -46.140625 52.546875 -47.71875 54.578125 -50.875 L 58.921875 -57.46875 L 60.234375 -57.46875 L 55.5 -32.296875 L 54.171875 -32.296875 L 52.59375 -37.5625 C 51.445312 -41.519531 48.8125 -43.5 44.6875 -43.5 L 32.953125 -43.5 C 31.804688 -37.082031 30.570312 -30.3125 29.25 -23.1875 C 27.9375 -16.070312 26.753906 -9.222656 25.703125 -2.640625 L 46.921875 -2.640625 C 49.648438 -2.640625 51.976562 -3.1875 53.90625 -4.28125 C 55.84375 -5.382812 57.734375 -7.253906 59.578125 -9.890625 L 68.40625 -22.9375 L 69.734375 -22.9375 L 64.453125 0 Z M 0.265625 0 "/></g></g></g><g fill="#ffffff" fill-opacity="1"><g transform="translate(381.422014, 137.677345)"><g><path d="M 6.859375 -31.640625 L 6.859375 -35.1875 L 40.078125 -35.1875 L 40.078125 -31.640625 Z M 6.859375 -31.640625 "/></g></g></g><g fill="#ffffff" fill-opacity="1"><g transform="translate(433.093871, 137.677345)"><g><path d="M 0.265625 0 L 0.65625 -1.3125 L 4.609375 -3.03125 C 6.722656 -3.90625 8 -5.488281 8.4375 -7.78125 L 15.6875 -46.140625 C 16.5625 -51.054688 17.523438 -56.457031 18.578125 -62.34375 C 19.640625 -68.226562 20.609375 -73.765625 21.484375 -78.953125 C 21.921875 -81.585938 20.867188 -83.476562 18.328125 -84.625 L 15.6875 -85.671875 L 16.078125 -87 L 47.84375 -87 L 47.578125 -85.671875 L 43.765625 -84.234375 C 41.648438 -83.441406 40.285156 -81.8125 39.671875 -79.34375 L 32.421875 -41 C 31.546875 -36.070312 30.578125 -30.664062 29.515625 -24.78125 C 28.460938 -18.894531 27.457031 -13.359375 26.5 -8.171875 C 26.226562 -5.617188 27.238281 -3.773438 29.53125 -2.640625 L 32.5625 -1.3125 L 32.15625 0 Z M 0.265625 0 "/></g></g></g><g fill="#ffffff" fill-opacity="1"><g transform="translate(481.865799, 137.677345)"><g><path d="M 61.03125 0.53125 L 24.125 -70.515625 L 12.515625 -9.625 C 11.816406 -5.9375 13.222656 -3.429688 16.734375 -2.109375 L 18.984375 -1.3125 L 18.84375 0 L -0.265625 0 L 0 -1.3125 L 2.90625 -2.375 C 4.65625 -3.070312 6.035156 -3.96875 7.046875 -5.0625 C 8.054688 -6.164062 8.738281 -7.6875 9.09375 -9.625 L 21.75 -76.453125 L 20.171875 -79.75 C 19.023438 -82.125 17.265625 -83.96875 14.890625 -85.28125 L 14.5 -85.671875 L 14.765625 -87 L 35.0625 -87 L 69.0625 -22.9375 L 79.484375 -78.03125 C 80.097656 -81.375 78.820312 -83.660156 75.65625 -84.890625 L 73.546875 -85.671875 L 73.8125 -87 L 91.734375 -87 L 91.609375 -85.671875 L 88.84375 -84.75 C 87.175781 -84.132812 85.835938 -83.273438 84.828125 -82.171875 C 83.816406 -81.078125 83.132812 -79.609375 82.78125 -77.765625 L 68.015625 0.53125 Z M 61.03125 0.53125 "/></g></g></g></g></g><g transform="matrix(1, 0, 0, 1, 148, 702)"><g clip-path="url(#615188f0d6)"><g fill="#000000" fill-opacity="1"><g transform="translate(0.798101, 163.937908)"><g><path d="M 12.6875 0 L 12.6875 -98.515625 L 77.21875 -98.515625 L 77.21875 -83.5625 L 32.4375 -83.5625 L 32.4375 -57.390625 L 72.140625 -57.390625 L 72.140625 -43.109375 L 32.4375 -43.109375 L 32.4375 -14.953125 L 77.953125 -14.953125 L 77.953125 0 Z M 12.6875 0 "/></g></g></g><g fill="#000000" fill-opacity="1"><g transform="translate(87.161433, 163.937908)"><g><path d="M 35.046875 -31.96875 L 65.875 -31.96875 L 50.71875 -83.765625 Z M 4.671875 0 L 37.109375 -98.515625 L 63.40625 -98.515625 L 96.234375 0 L 75.21875 0 L 69.671875 -18.75 L 31.109375 -18.75 L 25.359375 0 Z M 4.671875 0 "/></g></g></g><g fill="#000000" fill-opacity="1"><g transform="translate(188.074382, 163.937908)"><g><path d="M 44.984375 1.734375 C 38.890625 1.734375 32.4375 0.9375 25.625 -0.65625 C 18.820312 -2.257812 12.953125 -4.441406 8.015625 -7.203125 L 14.8125 -21.6875 C 24.695312 -16.4375 34.910156 -13.8125 45.453125 -13.8125 C 50.742188 -13.8125 54.476562 -14.898438 56.65625 -17.078125 C 58.84375 -19.265625 59.9375 -22.535156 59.9375 -26.890625 C 59.9375 -27.742188 59.847656 -29.015625 59.671875 -30.703125 C 59.265625 -34.703125 54.8125 -37.972656 46.3125 -40.515625 L 29.5 -45.453125 C 24.34375 -46.960938 20.203125 -49.128906 17.078125 -51.953125 C 13.960938 -54.785156 11.847656 -57.878906 10.734375 -61.234375 C 9.628906 -64.597656 9.078125 -68.523438 9.078125 -73.015625 C 9.078125 -82.046875 12.289062 -88.828125 18.71875 -93.359375 C 25.144531 -97.898438 33.34375 -100.171875 43.3125 -100.171875 C 56.488281 -100.171875 67.476562 -97.613281 76.28125 -92.5 L 70.6875 -78.5625 C 62.09375 -82.601562 53.546875 -84.625 45.046875 -84.625 C 34.367188 -84.625 28.875 -81.351562 28.5625 -74.8125 C 28.5625 -74.457031 28.5625 -74.125 28.5625 -73.8125 C 28.5625 -70.476562 29.394531 -67.875 31.0625 -66 C 32.738281 -64.132812 36.15625 -62.425781 41.3125 -60.875 L 58.0625 -55.859375 C 64.820312 -53.816406 69.835938 -50.59375 73.109375 -46.1875 C 76.378906 -41.78125 78.015625 -35.515625 78.015625 -27.390625 C 78.015625 -19.273438 75.421875 -12.390625 70.234375 -6.734375 C 65.054688 -1.085938 56.640625 1.734375 44.984375 1.734375 Z M 44.984375 1.734375 "/></g></g></g><g fill="#000000" fill-opacity="1"><g transform="translate(273.570076, 163.937908)"><g><path d="M 33.96875 0 L 33.96875 -37.84375 L 0 -98.515625 L 20.890625 -98.515625 L 43.984375 -57.328125 L 67.015625 -98.515625 L 87.03125 -98.515625 L 53.734375 -37.84375 L 53.734375 0 Z M 33.96875 0 "/></g></g></g></g></g><g transform="matrix(1, 0, 0, 1, 659, 872)"><g clip-path="url(#61168e4178)"><g fill="#000000" fill-opacity="1"><g transform="translate(1.184268, 107.876243)"><g><path d="M 8.34375 0 L 8.34375 -6.59375 L 20.484375 -6.59375 L 20.484375 -57 L 8.34375 -57 L 8.34375 -63.546875 L 41.390625 -63.546875 L 41.390625 -57 L 29.3125 -57 L 29.3125 -6.59375 L 41.390625 -6.59375 L 41.390625 0 Z M 8.34375 0 "/></g></g></g><g fill="#000000" fill-opacity="1"><g transform="translate(56.055224, 107.876243)"><g><path d="M 9.578125 0 L 9.578125 -63.546875 L 16.296875 -63.546875 L 52.6875 -12.75 L 52.6875 -63.546875 L 60.46875 -63.546875 L 60.46875 0 L 52.609375 0 L 17.359375 -48.515625 L 17.359375 0 Z M 9.578125 0 "/></g></g></g><g fill="#000000" fill-opacity="1"><g transform="translate(131.226661, 107.876243)"><g><path d="M 22.015625 0 L 22.015625 -56.296875 L 3.6875 -56.296875 L 3.6875 -63.546875 L 49.21875 -63.546875 L 49.21875 -56.296875 L 30.84375 -56.296875 L 30.84375 0 Z M 22.015625 0 "/></g></g></g><g fill="#000000" fill-opacity="1"><g transform="translate(189.261329, 107.876243)"><g><path d="M 9.578125 0 L 9.578125 -63.546875 L 49.265625 -63.546875 L 49.265625 -56.953125 L 18.40625 -56.953125 L 18.40625 -36.03125 L 45.65625 -36.03125 L 45.65625 -29.4375 L 18.40625 -29.4375 L 18.40625 -6.59375 L 49.796875 -6.59375 L 49.796875 0 Z M 9.578125 0 "/></g></g></g><g fill="#000000" fill-opacity="1"><g transform="translate(249.536967, 107.876243)"><g><path d="M 9.578125 0 L 9.578125 -63.546875 L 37.921875 -63.546875 C 46.679688 -63.546875 52.175781 -60.234375 54.40625 -53.609375 C 55.226562 -51.148438 55.644531 -48.226562 55.65625 -44.84375 C 55.664062 -41.457031 55.273438 -38.613281 54.484375 -36.3125 C 53.703125 -34.019531 52.6875 -32.25 51.4375 -31 C 50.195312 -29.757812 48.625 -28.742188 46.71875 -27.953125 L 60.203125 0 L 51.109375 0 L 38.5 -26.375 L 18.453125 -26.328125 L 18.453125 0 Z M 18.453125 -33.046875 L 37.171875 -33.046875 C 40.921875 -33.046875 43.460938 -34.054688 44.796875 -36.078125 C 46.128906 -38.097656 46.796875 -40.957031 46.796875 -44.65625 C 46.773438 -51.269531 45.035156 -55.164062 41.578125 -56.34375 C 40.578125 -56.6875 39.445312 -56.847656 38.1875 -56.828125 L 18.453125 -56.828125 Z M 18.453125 -33.046875 "/></g></g></g><g fill="#000000" fill-opacity="1"><g transform="translate(318.996147, 107.876243)"><g><path d="M 8.34375 0 L 8.34375 -6.59375 L 20.484375 -6.59375 L 20.484375 -57 L 8.34375 -57 L 8.34375 -63.546875 L 41.390625 -63.546875 L 41.390625 -57 L 29.3125 -57 L 29.3125 -6.59375 L 41.390625 -6.59375 L 41.390625 0 Z M 8.34375 0 "/></g></g></g><g fill="#000000" fill-opacity="1"><g transform="translate(373.867103, 107.876243)"><g><path d="M 34.34375 -6.15625 C 40.125 -6.15625 44.332031 -7.082031 46.96875 -8.9375 C 49.613281 -10.800781 50.9375 -14.488281 50.9375 -20 L 50.9375 -42.984375 C 50.9375 -48.484375 49.609375 -52.257812 46.953125 -54.3125 C 44.304688 -56.363281 40.109375 -57.390625 34.359375 -57.390625 C 25.453125 -57.390625 20.050781 -54.929688 18.15625 -50.015625 C 17.414062 -48.140625 17.046875 -45.796875 17.046875 -42.984375 L 17.046875 -20 C 17.046875 -14.519531 18.484375 -10.84375 21.359375 -8.96875 C 24.234375 -7.09375 28.5625 -6.15625 34.34375 -6.15625 Z M 18.0625 -1.921875 C 14.226562 -3.859375 11.617188 -6.453125 10.234375 -9.703125 C 8.859375 -12.960938 8.171875 -16.847656 8.171875 -21.359375 L 8.171875 -41.359375 C 8.171875 -50.460938 10.75 -56.773438 15.90625 -60.296875 C 20.070312 -63.109375 26.222656 -64.515625 34.359375 -64.515625 C 48.773438 -64.515625 57.023438 -59.148438 59.109375 -48.421875 C 59.546875 -46.171875 59.765625 -43.625 59.765625 -40.78125 L 59.765625 -21.96875 C 59.765625 -13.125 57.226562 -6.914062 52.15625 -3.34375 C 48.09375 -0.46875 42.351562 0.96875 34.9375 0.96875 C 27.519531 0.96875 21.894531 0.00390625 18.0625 -1.921875 Z M 18.0625 -1.921875 "/></g></g></g><g fill="#000000" fill-opacity="1"><g transform="translate(446.929382, 107.876243)"><g><path d="M 9.578125 0 L 9.578125 -63.546875 L 37.921875 -63.546875 C 46.679688 -63.546875 52.175781 -60.234375 54.40625 -53.609375 C 55.226562 -51.148438 55.644531 -48.226562 55.65625 -44.84375 C 55.664062 -41.457031 55.273438 -38.613281 54.484375 -36.3125 C 53.703125 -34.019531 52.6875 -32.25 51.4375 -31 C 50.195312 -29.757812 48.625 -28.742188 46.71875 -27.953125 L 60.203125 0 L 51.109375 0 L 38.5 -26.375 L 18.453125 -26.328125 L 18.453125 0 Z M 18.453125 -33.046875 L 37.171875 -33.046875 C 40.921875 -33.046875 43.460938 -34.054688 44.796875 -36.078125 C 46.128906 -38.097656 46.796875 -40.957031 46.796875 -44.65625 C 46.773438 -51.269531 45.035156 -55.164062 41.578125 -56.34375 C 40.578125 -56.6875 39.445312 -56.847656 38.1875 -56.828125 L 18.453125 -56.828125 Z M 18.453125 -33.046875 "/></g></g></g><g fill="#000000" fill-opacity="1"><g transform="translate(516.388561, 107.876243)"><g><path d="M 51.15625 -17.84375 C 51.15625 -5.300781 44.222656 0.96875 30.359375 0.96875 C 21.160156 0.96875 13.148438 -1.007812 6.328125 -4.96875 L 9.453125 -11.734375 C 12.085938 -10.179688 15.285156 -8.863281 19.046875 -7.78125 C 22.816406 -6.695312 26.476562 -6.15625 30.03125 -6.15625 C 33.59375 -6.15625 36.28125 -6.609375 38.09375 -7.515625 C 41.351562 -9.148438 42.984375 -12.488281 42.984375 -17.53125 C 42.984375 -19.613281 42.878906 -21.003906 42.671875 -21.703125 C 41.992188 -24.046875 39.519531 -25.894531 35.25 -27.25 L 19.90625 -32.34375 C 14.957031 -33.957031 11.65625 -36 10 -38.46875 C 8.34375 -40.945312 7.515625 -44.117188 7.515625 -47.984375 C 7.546875 -53.554688 9.582031 -57.804688 13.625 -60.734375 C 17.113281 -63.222656 22.179688 -64.484375 28.828125 -64.515625 C 38.285156 -64.515625 45.390625 -63.035156 50.140625 -60.078125 L 47.984375 -53.171875 C 42.773438 -55.984375 36.898438 -57.390625 30.359375 -57.390625 C 25.828125 -57.390625 22.375 -56.800781 20 -55.625 C 17.625 -54.457031 16.347656 -52.570312 16.171875 -49.96875 C 16.109375 -49.144531 16.078125 -48.410156 16.078125 -47.765625 C 16.078125 -45.660156 16.523438 -44.035156 17.421875 -42.890625 C 18.316406 -41.742188 20.050781 -40.734375 22.625 -39.859375 L 38.625 -34.453125 C 43.019531 -32.960938 46.207031 -31.007812 48.1875 -28.59375 C 50.164062 -26.175781 51.15625 -22.59375 51.15625 -17.84375 Z M 51.15625 -17.84375 "/></g></g></g></g></g></g></g></svg>